<svg xmlns="http://www.w3.org/2000/svg" width="1600" height="420" viewBox="0 0 1600 420" role="img" aria-label="X1 MYTVOnline4 Panel">
<defs>
  <linearGradient id="bg" x1="0" y1="0" x2="1" y2="1"><stop stop-color="#02060A"/><stop offset=".55" stop-color="#071018"/><stop offset="1" stop-color="#02070C"/></linearGradient>
  <linearGradient id="x" x1="0" x2="1"><stop stop-color="#19F6FF"/><stop offset=".5" stop-color="#11C9FF"/><stop offset="1" stop-color="#326BFF"/></linearGradient>
  <filter id="glow"><feGaussianBlur stdDeviation="9" result="b"/><feMerge><feMergeNode in="b"/><feMergeNode in="SourceGraphic"/></feMerge></filter>
  <pattern id="scan" width="8" height="8" patternUnits="userSpaceOnUse"><path d="M0 7.5H8" stroke="#A9EDFF" stroke-opacity=".035"/></pattern>
</defs>
<rect width="1600" height="420" rx="28" fill="url(#bg)"/>
<rect width="1600" height="420" rx="28" fill="url(#scan)"/>
<path d="M0 0H580L520 64H0ZM0 420H580L520 356H0Z" fill="#0A1C27"/>
<path d="M1600 0H1010L1070 64H1600ZM1600 420H1010L1070 356H1600Z" fill="#081620"/>
<path d="M0 64H520L460 124H0M1600 64H1070L1130 124H1600" fill="none" stroke="#13DFFF" stroke-opacity=".28" stroke-width="2"/>
<g transform="translate(90 78)" filter="url(#glow)">
  <text x="0" y="205" font-family="Arial Black,Arial,sans-serif" font-weight="900" font-size="220" fill="url(#x)" letter-spacing="-15">X1</text>
  <path d="M12 246H430" stroke="#18ECFF" stroke-width="5"/>
  <text x="14" y="290" font-family="Arial,Helvetica,sans-serif" font-size="17" fill="#DFFBFF" letter-spacing="5">PUBLIC SOFTWARE</text>
</g>
<g transform="translate(650 70)" font-family="Arial,Helvetica,sans-serif">
  <text x="0" y="30" font-size="15" fill="#6ED8EA" letter-spacing="4">X1 / DEVICE CONTROL</text>
  <text x="0" y="98" font-size="46" font-weight="800" fill="#FFFFFF">MYTVONLINE4 PANEL</text>
  <text x="0" y="154" font-size="27" font-weight="700" fill="#17E8FF">PUBLIC FOUNDATION WORKSPACE</text>
  <text x="0" y="204" font-size="20" fill="#B6C9D3">Compatibility is a contract. Runtime behavior requires evidence.</text>
  <g transform="translate(0 248)"><rect width="330" height="68" rx="10" fill="#071921" stroke="#19E8FF" stroke-width="2"/><text x="20" y="28" font-size="12" fill="#65DDF0" letter-spacing="3">STATUS</text><text x="20" y="52" font-size="18" font-weight="700" fill="#F2FEFF">PUBLIC / FOUNDATION</text></g>
  <g transform="translate(352 248)"><rect width="330" height="68" rx="10" fill="#0A111B" stroke="#4777FF" stroke-width="2"/><text x="20" y="28" font-size="12" fill="#7FA0FF" letter-spacing="3">RELEASE</text><text x="20" y="52" font-size="18" font-weight="700" fill="#F6F8FF">NOT YET CLAIMED</text></g>
</g>
<text x="800" y="394" text-anchor="middle" font-family="Arial,Helvetica,sans-serif" font-size="13" fill="#6FBDCB" letter-spacing="6">X1 • FREE MEANS FUNCTIONAL • EVIDENCE BEFORE CLAIMS</text>
</svg>